<?xml version="1.0" encoding="UTF-8" ?>
<!DOCTYPE svg PUBLIC "-//W3C//DTD SVG 1.1//EN" "http://www.w3.org/Graphics/SVG/1.1/DTD/svg11.dtd">
<svg width="322pt" height="322pt" viewBox="0 0 322 322" version="1.1" xmlns="http://www.w3.org/2000/svg">
<g>
<path fill="#fff" opacity="1.00" d=" M 157.40 1.54 C 161.17 0.60 165.37 1.11 168.61 3.34 C 216.85 35.45 265.04 67.64 313.28 99.75 C 318.01 102.38 321.32 107.46 321.10 112.97 C 321.11 144.99 321.10 177.02 321.10 209.04 C 321.24 213.97 318.77 218.86 314.55 221.48 C 265.93 253.90 217.31 286.34 168.66 318.73 C 164.16 321.83 157.86 321.80 153.37 318.69 C 104.74 286.28 56.12 253.87 7.50 221.44 C 3.68 218.96 1.01 214.60 1.13 209.98 C 1.12 177.30 1.10 144.61 1.13 111.93 C 1.08 107.37 3.74 103.12 7.50 100.66 C 55.89 68.38 104.30 36.14 152.69 3.85 C 154.15 2.90 155.69 1.98 157.40 1.54 M 39.61 112.24 C 55.57 123.14 71.69 133.79 87.77 144.52 C 107.56 131.19 127.38 117.92 147.26 104.72 C 147.37 83.30 147.26 61.89 147.31 40.47 C 111.43 64.42 75.56 88.39 39.61 112.24 M 174.78 40.46 C 174.83 61.87 174.72 83.29 174.83 104.70 C 194.70 117.91 214.53 131.18 234.33 144.50 C 250.45 133.84 266.50 123.05 282.54 112.28 C 246.58 88.40 210.68 64.43 174.78 40.46 M 112.38 161.04 C 128.61 171.88 144.85 182.70 161.04 193.60 C 177.26 182.74 193.49 171.88 209.72 161.04 C 193.46 150.25 177.26 139.36 161.04 128.50 C 144.85 139.39 128.64 150.25 112.38 161.04 M 259.09 161.04 C 270.59 168.69 282.07 176.36 293.52 184.07 C 293.55 168.72 293.55 153.37 293.52 138.01 C 282.08 145.73 270.61 153.43 259.09 161.04 M 28.57 138.01 C 28.56 153.37 28.56 168.73 28.57 184.08 C 40.03 176.36 51.52 168.69 63.02 161.04 C 51.50 153.43 40.03 145.73 28.57 138.01 M 39.58 209.83 C 75.53 233.72 111.44 257.65 147.31 281.65 C 147.34 260.30 147.22 238.95 147.36 217.61 C 127.57 204.14 107.57 190.98 87.72 177.60 C 71.67 188.34 55.58 199.02 39.58 209.83 M 174.71 217.69 C 174.87 239.01 174.75 260.33 174.77 281.65 C 210.67 257.67 246.57 233.71 282.54 209.83 C 266.50 199.04 250.45 188.25 234.32 177.61 C 214.52 191.08 194.43 204.11 174.71 217.69 Z" />
</g>
</svg>
