<?xml version="1.0" encoding="UTF-8" ?>
<!DOCTYPE svg PUBLIC "-//W3C//DTD SVG 1.1//EN" "http://www.w3.org/Graphics/SVG/1.1/DTD/svg11.dtd">
<svg width="256pt" height="256pt" viewBox="0 0 256 256" version="1.1" xmlns="http://www.w3.org/2000/svg">
<g>
<path fill="#444" opacity="1.00" d=" M 94.38 6.41 C 114.06 1.00 135.07 0.55 154.97 5.05 C 181.28 10.90 205.57 25.45 223.09 45.93 C 241.11 66.66 252.01 93.47 253.54 120.90 C 254.74 140.80 251.21 161.00 243.08 179.22 C 230.34 208.38 206.13 232.41 176.76 244.70 C 153.63 254.76 127.41 257.20 102.72 252.37 C 76.32 247.16 51.80 233.19 33.78 213.22 C 14.85 192.42 3.10 165.10 1.35 137.00 C 1.24 135.60 0.75 134.28 0.00 133.10 L 0.00 123.89 C 1.92 120.82 1.33 117.09 1.86 113.67 C 4.50 91.35 13.21 69.74 26.88 51.88 C 43.54 29.83 67.70 13.58 94.38 6.41 M 110.04 28.76 C 86.41 32.76 64.51 45.82 49.51 64.47 C 35.01 82.18 26.54 105.02 27.15 127.99 C 27.09 134.26 26.97 141.50 31.66 146.33 C 36.35 151.22 44.07 151.36 50.05 149.06 C 60.27 145.24 68.52 137.27 74.33 128.20 C 83.03 114.20 84.87 97.16 84.48 81.01 C 84.25 72.30 82.85 63.69 82.20 55.02 C 94.87 57.68 107.12 62.86 117.86 70.12 C 141.79 86.57 160.55 109.23 177.29 132.70 C 184.31 142.41 193.16 151.74 204.89 155.44 C 210.34 157.35 217.29 156.93 221.21 152.21 C 226.71 145.93 227.74 137.02 227.70 128.99 C 228.25 111.80 223.75 94.61 215.58 79.52 C 204.81 59.51 186.80 43.75 165.89 35.00 C 148.37 27.66 128.75 25.58 110.04 28.76 Z" />
</g>
</svg>
