<?xml version="1.0" encoding="UTF-8" ?>
<!DOCTYPE svg PUBLIC "-//W3C//DTD SVG 1.1//EN" "http://www.w3.org/Graphics/SVG/1.1/DTD/svg11.dtd">
<svg width="200pt" height="200pt" viewBox="0 0 200 200" version="1.1" xmlns="http://www.w3.org/2000/svg">
<g>
<path fill="#fff" opacity="1.00" d=" M 77.34 0.00 L 122.61 0.00 C 136.57 0.51 150.99 -0.23 164.30 4.75 C 178.58 9.71 190.27 21.46 195.24 35.73 C 200.13 49.03 199.49 63.44 200.00 77.38 L 200.00 122.67 C 199.48 137.55 200.16 153.08 194.13 167.05 C 188.25 181.28 175.48 192.34 160.66 196.41 C 148.34 200.03 135.34 199.53 122.64 200.00 L 77.37 200.00 C 62.44 199.48 46.86 200.18 32.85 194.11 C 18.31 188.09 7.16 174.89 3.26 159.68 C -0.11 147.64 0.47 135.02 0.00 122.66 L 0.00 77.33 C 0.51 63.38 -0.23 48.96 4.75 35.65 C 9.71 21.40 21.42 9.69 35.68 4.73 C 48.98 -0.24 63.39 0.51 77.34 0.00 M 61.35 18.58 C 54.74 18.83 48.03 19.48 41.79 21.82 C 33.30 24.78 26.18 31.43 22.65 39.69 C 18.11 50.18 18.64 61.86 18.14 73.04 C 18.27 96.02 17.55 119.03 18.75 141.99 C 19.27 152.46 22.13 163.60 30.11 170.93 C 38.73 179.45 51.48 181.23 63.06 181.45 C 83.70 182.18 104.37 181.78 125.02 181.79 C 134.70 181.47 144.55 181.79 154.02 179.43 C 163.70 177.19 172.36 170.63 176.68 161.63 C 181.60 151.49 181.32 139.99 181.74 129.00 C 181.91 109.35 181.93 89.69 181.72 70.03 C 181.30 57.99 181.44 44.98 174.52 34.53 C 168.86 25.88 159.04 20.80 148.96 19.48 C 135.05 17.69 120.99 18.31 107.01 18.00 C 91.79 18.32 76.55 17.72 61.35 18.58 Z" />
<path fill="#fff" opacity="1.00" d=" M 149.16 35.29 C 155.73 32.69 163.84 37.04 165.11 44.03 C 166.87 50.94 161.24 58.44 154.11 58.64 C 147.94 59.20 141.99 54.26 141.35 48.11 C 140.58 42.70 144.02 37.10 149.16 35.29 Z" />
<path fill="#fff" opacity="1.00" d=" M 91.15 49.31 C 103.35 47.24 116.29 49.60 126.83 56.13 C 140.37 64.37 149.83 79.17 151.09 95.03 C 152.24 106.50 149.45 118.34 143.09 127.98 C 134.76 140.88 120.39 149.81 105.04 151.08 C 93.02 152.32 80.59 149.20 70.70 142.23 C 57.31 133.08 48.74 117.26 48.62 101.02 C 48.19 87.18 53.83 73.32 63.66 63.59 C 71.06 56.14 80.82 51.13 91.15 49.31 M 91.50 67.80 C 84.24 69.69 77.71 74.16 73.25 80.19 C 63.93 92.27 64.73 110.73 75.04 121.97 C 85.00 133.73 103.46 136.76 116.65 128.76 C 130.26 121.19 136.88 103.38 131.31 88.79 C 126.00 72.92 107.62 63.15 91.50 67.80 Z" />
</g>
</svg>
