<?xml version="1.0" encoding="UTF-8" ?>
<!DOCTYPE svg PUBLIC "-//W3C//DTD SVG 1.1//EN" "http://www.w3.org/Graphics/SVG/1.1/DTD/svg11.dtd">
<svg width="256pt" height="256pt" viewBox="0 0 256 256" version="1.1" xmlns="http://www.w3.org/2000/svg">
<g>
<path fill="#fff" opacity="1.00" d=" M 15.68 78.67 C 25.59 66.09 41.38 59.45 57.01 57.90 C 74.50 57.03 93.26 57.76 108.52 67.37 C 119.87 74.41 127.70 85.91 132.61 98.13 C 137.59 110.95 141.59 124.11 146.16 137.07 C 148.66 144.11 151.35 151.22 155.68 157.37 C 163.28 167.89 175.91 174.89 188.99 174.80 C 199.31 175.14 210.54 175.98 219.84 170.63 C 224.55 167.99 226.24 162.04 225.04 156.99 C 224.06 150.94 218.61 146.89 213.21 144.84 C 200.46 140.31 186.81 138.83 174.18 133.91 C 166.12 130.21 158.20 124.46 155.08 115.80 C 150.51 104.01 150.96 90.08 156.82 78.82 C 161.24 71.78 167.60 65.63 175.44 62.62 C 186.62 57.99 198.97 57.12 210.94 57.74 C 222.73 58.47 235.21 61.50 243.81 70.14 C 250.48 76.38 253.30 85.48 254.48 94.30 C 245.00 96.69 235.07 96.61 225.47 98.44 C 223.80 93.79 222.97 88.35 218.89 85.05 C 212.28 80.48 203.64 79.85 195.91 81.16 C 189.63 82.17 183.33 86.43 181.91 92.93 C 181.56 97.69 181.94 103.12 185.33 106.81 C 187.56 109.30 190.83 110.40 193.90 111.45 C 205.93 115.32 218.66 116.73 230.45 121.39 C 239.86 125.23 248.61 132.11 252.37 141.82 C 256.37 152.16 256.70 164.12 252.47 174.44 C 249.57 181.68 243.67 187.40 236.84 191.01 C 227.36 196.04 216.61 198.10 206.00 198.96 C 195.69 198.94 185.32 199.43 175.07 198.09 C 159.80 195.75 144.50 189.67 133.83 178.15 C 127.66 171.54 123.06 163.60 119.91 155.15 C 113.65 138.99 109.43 122.11 102.79 106.09 C 99.80 98.81 95.38 91.89 88.85 87.31 C 80.54 81.48 69.72 80.12 59.90 81.93 C 50.43 83.75 42.29 90.37 37.92 98.86 C 32.41 108.92 31.18 120.64 31.51 131.93 C 31.47 142.41 34.09 153.10 40.15 161.76 C 45.59 169.40 54.41 174.64 63.85 175.06 C 78.87 175.78 92.93 168.29 103.75 158.40 C 106.80 166.94 110.08 175.39 112.84 184.03 C 102.16 192.67 88.62 197.03 75.13 198.62 C 59.02 199.97 41.84 198.91 27.64 190.39 C 15.38 183.20 7.31 170.42 3.68 156.91 C 0.71 147.25 0.41 137.07 0.58 127.05 C 0.78 110.00 4.99 92.29 15.68 78.67 Z" />
</g>
</svg>
