<?xml version="1.0" encoding="UTF-8" ?>
<!DOCTYPE svg PUBLIC "-//W3C//DTD SVG 1.1//EN" "http://www.w3.org/Graphics/SVG/1.1/DTD/svg11.dtd">
<svg width="300pt" height="300pt" viewBox="0 0 300 300" version="1.1" xmlns="http://www.w3.org/2000/svg">
<g>
<path fill="#444" opacity="1.00" d=" M 71.50 38.59 C 87.14 31.33 104.24 26.96 121.49 26.35 L 121.54 25.67 C 126.64 25.97 131.97 24.94 136.93 26.19 C 146.53 26.69 156.06 28.32 165.33 30.86 C 165.28 54.86 165.22 78.87 165.36 102.87 C 152.08 96.37 136.54 95.03 122.19 98.33 C 103.07 102.65 85.93 115.01 75.84 131.82 C 69.70 141.91 66.12 154.10 68.28 165.92 C 70.08 177.46 77.57 187.68 87.49 193.69 C 101.92 202.43 119.86 204.56 136.17 200.67 C 156.56 195.87 174.63 181.92 184.19 163.26 C 188.16 155.84 189.96 147.50 190.13 139.13 C 190.28 106.09 190.04 73.04 190.25 40.01 C 194.48 42.31 198.70 44.62 202.75 47.24 C 219.68 58.01 237.27 68.00 256.17 74.90 C 267.36 78.81 279.08 81.95 291.03 81.71 C 294.58 81.38 298.47 83.40 299.43 87.01 C 300.70 92.34 298.79 97.77 296.38 102.48 C 288.19 117.68 272.93 128.60 256.31 132.76 C 258.29 150.47 257.12 168.61 251.82 185.67 C 243.92 211.82 226.71 234.94 204.16 250.30 C 181.96 265.72 154.82 273.04 127.98 273.39 C 125.04 273.24 122.00 273.67 119.15 272.80 C 93.17 271.24 67.50 262.14 46.95 246.04 C 24.68 228.80 8.80 203.50 3.18 175.89 C -2.10 150.37 0.46 123.11 11.27 99.32 C 23.11 72.66 45.07 50.83 71.50 38.59 Z" />
</g>
</svg>
