<?xml version="1.0" encoding="UTF-8" ?>
<!DOCTYPE svg PUBLIC "-//W3C//DTD SVG 1.1//EN" "http://www.w3.org/Graphics/SVG/1.1/DTD/svg11.dtd">
<svg width="300pt" height="300pt" viewBox="0 0 300 300" version="1.1" xmlns="http://www.w3.org/2000/svg">
<g>
<path fill="#fff" opacity="1.00" d=" M 141.62 0.00 L 158.28 0.00 C 184.60 1.55 210.55 9.88 232.54 24.50 C 258.66 41.68 279.27 67.17 290.35 96.44 C 295.92 110.87 298.95 126.17 300.00 141.57 L 300.00 158.40 C 298.30 187.33 288.27 215.75 270.96 239.04 C 254.22 261.71 231.09 279.66 204.80 289.87 C 190.00 295.75 174.23 298.93 158.37 300.00 L 141.72 300.00 C 116.08 298.48 90.80 290.52 69.17 276.61 C 43.30 260.07 22.62 235.48 11.02 207.02 C 4.62 191.58 1.10 175.06 0.00 158.41 L 0.00 141.61 C 1.26 121.92 6.06 102.41 14.75 84.66 C 26.20 60.79 44.22 40.17 66.15 25.38 C 88.39 10.25 114.81 1.61 141.62 0.00 M 70.62 146.35 C 67.44 147.67 63.86 148.93 61.86 151.92 C 59.75 154.65 63.35 157.33 65.73 158.18 C 78.53 162.21 91.34 166.21 104.17 170.14 C 108.86 185.38 113.43 200.65 118.13 215.88 C 119.10 219.81 124.59 218.98 127.13 217.17 C 134.43 210.88 141.02 203.80 147.97 197.13 C 160.01 206.12 172.13 215.01 184.20 223.97 C 187.04 226.08 190.98 227.87 194.46 226.23 C 197.32 224.54 198.49 221.16 199.08 218.07 C 207.40 178.79 215.77 139.51 224.08 100.23 C 225.39 94.98 220.47 88.41 214.80 90.74 C 166.71 109.20 118.69 127.85 70.62 146.35 Z" />
</g>
</svg>
