<svg xmlns="http://www.w3.org/2000/svg" viewBox="0 0 283.9 220.81"><path class="svg" d="M0,219.71V149.8H50.3v12.7H13.2v19.1H48.3v12.21H13.2v25.9Z"/><path class="svg" d="M70.3,156.5c0,9.5-14.4,9.5-14.4,0S70.3,147,70.3,156.5ZM57,170.2v49.51H69.2V170.2Z"/><path class="svg" d="M115,219.71v-25.8c0-7.5-4.1-13.21-11.9-13.21-7.5,0-12.6,6.31-12.6,13.81v25.2H78.4V170.3H89.3l.8,6.71c5-4.91,10-7.41,16.2-7.41,11.6,0,20.9,8.7,20.9,24.21v25.9Z"/><path class="svg" d="M187.4,149.8v69.91H176l-.8-6.8c-3.8,5.9-9.9,7.9-15.9,7.9-14.5,0-25.4-9.6-25.4-25.8,0-17,10.7-25.81,25.1-25.81,5.2,0,13.3,2.8,16.2,7.9V149.8ZM146.1,195c0,8.6,6.2,14.5,14,14.5s14.3-5.6,14.3-14.5a14.08,14.08,0,0,0-14.3-14.41C152.3,180.6,146.1,186.1,146.1,195Z"/><path class="svg" d="M213.7,156.5v14h13.6V181H213.6v21.3c0,4.7,2.6,7,6.4,7a13.94,13.94,0,0,0,5.9-1.5l3.4,10.4a27.25,27.25,0,0,1-10.1,2.1c-10.7.4-17.7-5.7-17.7-18V181h-9.2V170.5h9.2V157.8Z"/><path class="svg" d="M283.9,195.1c0,14.21-9.7,25.71-25.7,25.71s-25.6-11.5-25.6-25.71,9.8-25.7,25.5-25.7S283.9,181,283.9,195.1Zm-39.1,0c0,7.51,4.5,14.51,13.4,14.51s13.4-7,13.4-14.51-5.2-14.59-13.4-14.59C249.4,180.51,244.8,187.7,244.8,195.1Z"/><path class="svg" d="M78.73,28.5a6,6,0,0,0-6,5.89V78.61a6,6,0,0,0,12,0V34.39A6,6,0,0,0,78.73,28.5Z"/><path class="svg" class="a" d="M191.73,111h-101a55.5,55.5,0,0,1,0-111h101a55.5,55.5,0,0,1,0,111Zm-101-99a43.5,43.5,0,0,0,0,87h101a43.5,43.5,0,0,0,0-87Z"/><path class="svg" d="M211.4,75.73l-7.64-7.64A26,26,0,1,0,196,75.87l7.64,7.63a5.5,5.5,0,0,0,7.78,0A5.5,5.5,0,0,0,211.4,75.73ZM167,54.06a14.95,14.95,0,1,1,25.58,10.48l-.09.07-.07.09A14.93,14.93,0,0,1,167,54.06Z"/></svg>