<?xml version="1.0" encoding="UTF-8" ?>
<!DOCTYPE svg PUBLIC "-//W3C//DTD SVG 1.1//EN" "http://www.w3.org/Graphics/SVG/1.1/DTD/svg11.dtd">
<svg width="300pt" height="300pt" viewBox="0 0 300 300" version="1.1" xmlns="http://www.w3.org/2000/svg">
<g id="#ffffffff">
<path fill="#ffffff" opacity="1.00" d=" M 47.56 28.57 C 91.85 -1.56 151.47 -7.99 200.90 12.88 C 234.88 26.87 263.59 53.20 280.42 85.87 C 290.51 105.43 296.72 127.16 297.50 149.19 C 297.88 148.46 298.26 147.72 298.64 146.99 C 298.20 152.56 298.72 158.18 298.63 163.77 L 297.58 163.36 C 297.65 172.23 295.95 180.98 294.96 189.76 C 290.31 219.73 275.92 247.82 255.03 269.72 C 255.18 269.06 255.46 267.72 255.61 267.06 C 262.63 251.83 268.09 235.67 269.73 218.91 C 273.46 193.02 270.88 166.32 262.73 141.48 C 252.52 110.29 233.11 82.21 207.65 61.51 C 184.08 42.20 155.25 29.39 125.11 24.89 C 99.98 21.58 74.08 23.37 49.80 30.82 C 46.41 31.93 43.01 33.08 39.80 34.65 C 41.76 31.93 44.92 30.52 47.56 28.57 Z" />
<path fill="#ffffff" opacity="1.00" d=" M 6.45 92.46 C 27.69 76.58 53.40 66.54 79.90 64.53 C 100.63 63.21 121.58 66.62 140.97 74.01 C 161.28 81.88 179.72 94.53 194.35 110.66 C 211.60 129.73 223.63 153.62 227.93 179.02 C 229.97 189.89 230.06 201.01 229.47 212.03 C 228.05 225.98 225.87 240.02 220.67 253.12 C 214.73 269.04 205.34 283.43 194.57 296.49 C 193.81 297.34 192.98 298.13 192.15 298.91 C 210.63 261.22 212.03 215.43 195.23 176.89 C 181.66 145.04 156.66 118.27 125.95 102.33 C 105.09 91.37 81.58 85.42 58.00 85.44 C 40.02 85.43 22.13 88.57 4.98 93.88 C 5.34 93.52 6.08 92.81 6.45 92.46 Z" />
<path fill="#ffffff" opacity="1.00" d=" M 0.00 152.77 C 30.76 129.06 75.42 126.22 109.44 144.55 C 134.12 157.50 152.77 181.45 159.06 208.62 C 166.74 240.43 156.43 275.36 134.31 299.12 C 138.69 287.45 142.90 275.49 143.86 262.97 C 146.08 238.16 139.15 212.71 124.74 192.41 C 108.18 168.58 81.78 151.73 53.06 147.29 C 35.30 144.77 16.74 146.39 0.00 153.03 L 0.00 152.77 Z" />
<path fill="#ffffff" opacity="1.00" d=" M 11.18 206.42 C 22.02 199.00 35.86 194.90 48.96 197.56 C 62.06 199.23 74.69 205.61 83.04 215.96 C 91.61 226.45 95.26 240.83 92.58 254.12 C 90.90 264.19 86.15 273.48 80.40 281.80 C 80.80 278.44 82.40 275.38 83.00 272.06 C 85.63 256.88 83.67 240.31 74.71 227.43 C 66.21 214.41 51.48 206.11 36.11 204.58 C 27.77 202.82 19.37 204.94 11.18 206.42 Z" />
</g>
</svg>
