<?xml version="1.0" encoding="UTF-8" ?>
<!DOCTYPE svg PUBLIC "-//W3C//DTD SVG 1.1//EN" "http://www.w3.org/Graphics/SVG/1.1/DTD/svg11.dtd">
<svg width="448pt" height="448pt" viewBox="0 0 448 448" version="1.1" xmlns="http://www.w3.org/2000/svg">
<g id="#9a9a9aff">
<path fill="#9a9a9a" opacity="1.00" d=" M 61.85 0.00 L 385.81 0.00 C 396.59 0.95 407.35 3.61 416.63 9.36 C 432.55 18.86 444.01 35.56 446.89 53.90 C 447.25 56.82 447.60 59.73 448.00 62.65 L 448.00 288.71 C 447.28 301.80 443.33 314.85 435.42 325.43 C 425.63 338.87 410.45 348.33 394.00 350.92 C 389.98 351.37 385.98 352.01 381.94 352.01 C 356.95 351.96 331.96 352.04 306.98 351.97 C 305.61 352.14 303.77 351.53 302.86 352.92 C 276.48 384.33 250.49 416.08 223.96 447.35 C 197.56 415.96 171.43 384.34 145.12 352.88 C 144.20 351.54 142.34 352.16 140.99 351.96 C 115.67 352.03 90.35 351.98 65.02 351.99 C 48.72 351.71 32.39 345.80 20.55 334.43 C 7.81 322.79 0.72 305.85 0.00 288.72 L 0.00 62.13 C 0.49 59.11 0.81 56.07 1.22 53.05 C 4.25 35.51 15.08 19.58 30.13 10.12 C 39.58 3.94 50.70 1.04 61.85 0.00 M 32.00 60.97 C 31.99 137.64 32.00 214.32 32.00 291.00 C 32.83 306.99 47.90 320.91 63.98 320.02 C 95.54 319.98 127.11 320.02 158.67 320.00 C 180.38 346.15 202.04 372.36 224.01 398.29 C 245.65 372.78 266.86 346.91 288.35 321.28 C 289.36 319.68 291.42 320.12 293.02 319.99 C 324.34 320.02 355.67 320.00 386.99 320.00 C 401.96 319.17 415.12 306.02 416.00 291.06 C 416.01 214.38 416.01 137.70 416.00 61.02 C 415.19 46.02 401.96 32.78 386.95 32.00 C 278.31 32.00 169.66 31.99 61.01 32.00 C 46.02 32.83 32.86 45.98 32.00 60.97 Z" />
<path fill="#9a9a9a" opacity="1.00" d=" M 95.06 144.13 C 104.35 144.13 113.72 148.02 119.80 155.14 C 124.95 160.82 127.53 168.42 127.88 176.00 C 127.54 184.29 124.36 192.56 118.35 198.38 C 112.52 204.38 104.25 207.54 95.97 207.88 C 88.16 207.52 80.33 204.76 74.60 199.31 C 67.81 193.25 64.16 184.14 64.12 175.12 C 64.74 167.38 67.57 159.65 73.13 154.09 C 78.76 147.99 86.88 144.75 95.06 144.13 Z" />
<path fill="#9a9a9a" opacity="1.00" d=" M 223.10 144.14 C 232.38 144.09 241.73 148.02 247.81 155.13 C 252.98 160.79 255.49 168.42 255.95 175.98 C 255.50 183.79 252.79 191.62 247.35 197.37 C 241.46 203.97 232.74 207.56 223.98 207.91 C 216.19 207.48 208.36 204.80 202.64 199.34 C 195.81 193.26 192.14 184.13 192.15 175.06 C 192.72 167.08 195.84 159.18 201.66 153.58 C 207.26 147.78 215.15 144.71 223.10 144.14 Z" />
<path fill="#9a9a9a" opacity="1.00" d=" M 346.66 144.77 C 362.95 141.32 380.36 153.64 383.11 169.98 C 386.97 186.45 374.56 204.37 357.95 207.11 C 341.51 210.96 323.65 198.57 320.89 182.01 C 316.95 165.32 329.75 147.17 346.66 144.77 Z" />
</g>
</svg>
