<?xml version="1.0" encoding="UTF-8" ?>
<!DOCTYPE svg PUBLIC "-//W3C//DTD SVG 1.1//EN" "http://www.w3.org/Graphics/SVG/1.1/DTD/svg11.dtd">
<svg width="300pt" height="300pt" viewBox="0 0 300 300" version="1.1" xmlns="http://www.w3.org/2000/svg">
<g id="#ffffffff">
<path fill="#ffffff" opacity="1.00" d=" M 259.26 19.15 C 266.19 16.31 272.97 13.11 279.97 10.43 C 279.74 58.95 279.94 107.49 279.87 156.01 C 279.94 187.21 279.73 218.40 279.98 249.59 C 248.38 234.11 217.07 218.05 185.49 202.54 C 168.57 228.69 152.02 255.07 135.25 281.31 C 133.56 283.89 132.10 286.65 130.04 288.97 C 130.25 251.41 130.07 213.85 130.13 176.29 C 87.09 160.70 43.91 145.49 0.83 130.01 C 86.90 92.90 173.14 56.15 259.26 19.15 M 227.32 89.42 C 205.56 115.94 183.64 142.33 161.99 168.92 C 194.78 185.10 227.41 201.61 260.15 217.90 C 260.13 161.85 260.08 105.80 260.17 49.74 C 249.00 62.77 238.37 76.28 227.32 89.42 M 215.33 59.26 C 164.26 81.17 113.16 103.04 62.08 124.94 C 59.58 126.09 56.90 126.85 54.56 128.32 C 84.14 139.12 113.83 149.66 143.53 160.15 C 161.62 138.32 179.61 116.42 197.63 94.53 C 209.16 80.31 221.09 66.37 232.48 52.05 C 226.65 54.17 221.09 56.96 215.33 59.26 M 149.84 184.76 C 149.89 196.97 149.91 209.18 149.82 221.40 C 156.29 212.52 161.60 202.82 167.84 193.76 C 161.87 190.70 155.87 187.69 149.84 184.76 Z" />
</g>
</svg>
